<mxfile host="app.diagrams.net" modified="2022-07-06T10:32:34.847Z" agent="5.0 (Windows NT 10.0; Win64; x64) AppleWebKit/537.36 (KHTML, like Gecko) Chrome/103.0.0.0 Safari/537.36" etag="8QNTL2RLwVdJTSQxdj5p" version="20.0.4" type="github">
  <diagram id="LKw3yPQcZRu6g3r9BWp9" name="Page-1">
    <mxGraphModel dx="3020" dy="2225" grid="1" gridSize="10" guides="1" tooltips="1" connect="1" arrows="1" fold="1" page="1" pageScale="1" pageWidth="850" pageHeight="1100" math="0" shadow="0">
      <root>
        <mxCell id="0" />
        <mxCell id="1" parent="0" />
        <mxCell id="uwTPj9ky21v6XsiQclm8-14" value="Public subnet" style="points=[[0,0],[0.25,0],[0.5,0],[0.75,0],[1,0],[1,0.25],[1,0.5],[1,0.75],[1,1],[0.75,1],[0.5,1],[0.25,1],[0,1],[0,0.75],[0,0.5],[0,0.25]];outlineConnect=0;gradientColor=none;html=1;whiteSpace=wrap;fontSize=24;fontStyle=0;container=1;pointerEvents=0;collapsible=0;recursiveResize=0;shape=mxgraph.aws4.group;grIcon=mxgraph.aws4.group_security_group;grStroke=0;strokeColor=#248814;fillColor=#E9F3E6;verticalAlign=top;align=left;spacingLeft=30;fontColor=#248814;dashed=0;labelBackgroundColor=none;" parent="1" vertex="1">
          <mxGeometry x="-360" y="-720" width="280" height="360" as="geometry" />
        </mxCell>
        <mxCell id="uwTPj9ky21v6XsiQclm8-2" value="VPC" style="points=[[0,0],[0.25,0],[0.5,0],[0.75,0],[1,0],[1,0.25],[1,0.5],[1,0.75],[1,1],[0.75,1],[0.5,1],[0.25,1],[0,1],[0,0.75],[0,0.5],[0,0.25]];outlineConnect=0;gradientColor=none;html=1;whiteSpace=wrap;fontSize=24;fontStyle=0;container=1;pointerEvents=0;collapsible=0;recursiveResize=0;shape=mxgraph.aws4.group;grIcon=mxgraph.aws4.group_vpc;strokeColor=#248814;fillColor=none;verticalAlign=top;align=left;spacingLeft=30;fontColor=#AAB7B8;dashed=0;" parent="1" vertex="1">
          <mxGeometry x="-770" y="-800" width="730" height="940" as="geometry" />
        </mxCell>
        <mxCell id="uwTPj9ky21v6XsiQclm8-13" value="Public subnet" style="points=[[0,0],[0.25,0],[0.5,0],[0.75,0],[1,0],[1,0.25],[1,0.5],[1,0.75],[1,1],[0.75,1],[0.5,1],[0.25,1],[0,1],[0,0.75],[0,0.5],[0,0.25]];outlineConnect=0;gradientColor=none;html=1;whiteSpace=wrap;fontSize=24;fontStyle=0;container=1;pointerEvents=0;collapsible=0;recursiveResize=0;shape=mxgraph.aws4.group;grIcon=mxgraph.aws4.group_security_group;grStroke=0;strokeColor=#248814;fillColor=#E9F3E6;verticalAlign=top;align=left;spacingLeft=30;fontColor=#248814;dashed=0;labelBackgroundColor=none;" parent="uwTPj9ky21v6XsiQclm8-2" vertex="1">
          <mxGeometry x="50" y="80" width="280" height="360" as="geometry" />
        </mxCell>
        <mxCell id="uwTPj9ky21v6XsiQclm8-9" value="" style="rounded=0;whiteSpace=wrap;html=1;fontSize=24;dashed=1;labelBackgroundColor=none;fillColor=none;strokeColor=#FF8000;" parent="uwTPj9ky21v6XsiQclm8-2" vertex="1">
          <mxGeometry x="90" y="120" width="560" height="280" as="geometry" />
        </mxCell>
        <mxCell id="uwTPj9ky21v6XsiQclm8-26" value="EKS" style="text;html=1;strokeColor=none;fillColor=none;align=center;verticalAlign=middle;whiteSpace=wrap;rounded=0;dashed=1;labelBackgroundColor=none;fontSize=24;fontColor=#000000;" parent="uwTPj9ky21v6XsiQclm8-2" vertex="1">
          <mxGeometry x="90" y="200" width="80" height="30" as="geometry" />
        </mxCell>
        <mxCell id="uwTPj9ky21v6XsiQclm8-29" value="" style="sketch=0;points=[[0,0,0],[0.25,0,0],[0.5,0,0],[0.75,0,0],[1,0,0],[0,1,0],[0.25,1,0],[0.5,1,0],[0.75,1,0],[1,1,0],[0,0.25,0],[0,0.5,0],[0,0.75,0],[1,0.25,0],[1,0.5,0],[1,0.75,0]];outlineConnect=0;fontColor=#232F3E;gradientColor=#F78E04;gradientDirection=north;fillColor=#D05C17;strokeColor=#ffffff;dashed=0;verticalLabelPosition=bottom;verticalAlign=top;align=center;html=1;fontSize=12;fontStyle=0;aspect=fixed;shape=mxgraph.aws4.resourceIcon;resIcon=mxgraph.aws4.ec2;labelBackgroundColor=none;" parent="uwTPj9ky21v6XsiQclm8-2" vertex="1">
          <mxGeometry x="170" y="250" width="78" height="78" as="geometry" />
        </mxCell>
        <mxCell id="uwTPj9ky21v6XsiQclm8-30" value="" style="sketch=0;points=[[0,0,0],[0.25,0,0],[0.5,0,0],[0.75,0,0],[1,0,0],[0,1,0],[0.25,1,0],[0.5,1,0],[0.75,1,0],[1,1,0],[0,0.25,0],[0,0.5,0],[0,0.75,0],[1,0.25,0],[1,0.5,0],[1,0.75,0]];outlineConnect=0;fontColor=#232F3E;gradientColor=#F78E04;gradientDirection=north;fillColor=#D05C17;strokeColor=#ffffff;dashed=0;verticalLabelPosition=bottom;verticalAlign=top;align=center;html=1;fontSize=12;fontStyle=0;aspect=fixed;shape=mxgraph.aws4.resourceIcon;resIcon=mxgraph.aws4.ec2;labelBackgroundColor=none;" parent="uwTPj9ky21v6XsiQclm8-2" vertex="1">
          <mxGeometry x="482" y="250" width="78" height="78" as="geometry" />
        </mxCell>
        <mxCell id="uwTPj9ky21v6XsiQclm8-31" value="Node" style="text;html=1;strokeColor=none;fillColor=none;align=center;verticalAlign=middle;whiteSpace=wrap;rounded=0;dashed=1;labelBackgroundColor=none;fontSize=24;fontColor=#000000;" parent="uwTPj9ky21v6XsiQclm8-2" vertex="1">
          <mxGeometry x="168" y="328" width="80" height="30" as="geometry" />
        </mxCell>
        <mxCell id="uwTPj9ky21v6XsiQclm8-32" value="Node" style="text;html=1;strokeColor=none;fillColor=none;align=center;verticalAlign=middle;whiteSpace=wrap;rounded=0;dashed=1;labelBackgroundColor=none;fontSize=24;fontColor=#000000;" parent="uwTPj9ky21v6XsiQclm8-2" vertex="1">
          <mxGeometry x="482" y="328" width="80" height="30" as="geometry" />
        </mxCell>
        <mxCell id="uwTPj9ky21v6XsiQclm8-25" value="" style="outlineConnect=0;dashed=0;verticalLabelPosition=bottom;verticalAlign=top;align=center;html=1;shape=mxgraph.aws3.application_load_balancer;fillColor=#F58534;gradientColor=none;labelBackgroundColor=none;fontSize=24;fontColor=#000000;strokeColor=#FF8000;" parent="1" vertex="1">
          <mxGeometry x="-439.5" y="-840" width="79.5" height="80" as="geometry" />
        </mxCell>
      </root>
    </mxGraphModel>
  </diagram>
</mxfile>
